<svg id="svg" version="1.1" xmlns="http://www.w3.org/2000/svg" xmlns:xlink="http://www.w3.org/1999/xlink" width="400" height="400" viewBox="0, 0, 400,400"><g id="svgg"><path id="path0" d="M72.400 0.400 C 72.400 0.620,72.067 0.800,71.660 0.800 C 70.796 0.800,70.400 4.579,70.400 12.838 C 70.400 15.907,70.242 17.650,69.949 17.832 C 69.632 18.028,69.668 18.206,70.069 18.431 C 70.398 18.615,70.682 19.482,70.737 20.475 C 70.790 21.424,70.999 22.830,71.201 23.600 C 72.262 27.640,71.832 28.800,69.274 28.800 C 68.240 28.800,66.766 28.983,65.997 29.207 C 65.229 29.431,63.007 29.782,61.061 29.987 C 59.114 30.192,57.134 30.610,56.661 30.916 C 56.187 31.221,55.174 31.594,54.410 31.744 C 53.078 32.005,50.064 33.236,48.800 34.036 C 48.470 34.245,47.589 34.696,46.842 35.038 C 46.095 35.380,45.227 35.916,44.913 36.230 C 44.250 36.893,43.354 36.973,43.000 36.400 C 42.522 35.626,40.800 35.939,40.800 36.800 C 40.800 37.325,40.533 37.600,40.024 37.600 C 39.597 37.600,39.134 37.783,38.996 38.007 C 38.858 38.230,38.573 38.307,38.362 38.177 C 38.152 38.047,38.013 38.089,38.054 38.270 C 38.206 38.956,37.494 40.076,37.204 39.607 C 37.028 39.321,36.723 39.621,36.403 40.394 C 36.071 41.195,35.684 41.564,35.322 41.425 C 35.011 41.306,34.868 41.386,35.003 41.605 C 35.137 41.822,35.012 42.015,34.724 42.034 C 34.436 42.053,34.740 42.269,35.400 42.514 C 36.124 42.783,41.303 43.047,48.467 43.180 C 61.516 43.422,61.434 43.407,59.589 45.210 C 52.759 51.888,55.274 70.861,63.167 72.194 C 65.992 72.672,70.400 70.962,70.400 69.389 C 70.400 69.163,70.760 68.670,71.200 68.293 C 71.640 67.916,72.000 67.288,72.000 66.898 C 72.000 66.508,72.395 65.471,72.878 64.594 C 74.191 62.210,74.191 52.990,72.878 50.606 C 72.395 49.729,72.000 48.731,72.000 48.387 C 72.000 47.698,71.101 46.382,69.664 44.964 C 68.276 43.596,68.881 43.198,72.324 43.217 C 76.131 43.239,81.129 44.348,83.200 45.630 C 83.530 45.835,84.250 46.181,84.800 46.401 C 85.350 46.620,85.998 46.935,86.240 47.100 C 86.482 47.265,87.382 47.873,88.240 48.451 C 92.310 51.194,98.400 59.218,98.400 61.838 C 98.400 62.149,98.760 63.075,99.200 63.896 C 100.381 66.100,100.375 76.934,99.191 79.544 C 98.756 80.503,98.400 81.521,98.400 81.807 C 98.400 82.566,96.306 86.546,95.710 86.920 C 95.429 87.096,95.200 87.500,95.200 87.819 C 95.200 88.678,89.784 94.222,88.218 94.964 C 87.474 95.318,86.805 95.742,86.732 95.907 C 86.549 96.322,82.445 98.400,81.807 98.400 C 81.521 98.400,80.503 98.756,79.544 99.191 C 77.968 99.906,76.897 99.983,68.400 99.993 C 63.015 100.000,58.345 100.186,57.466 100.430 L 55.932 100.856 56.154 103.328 C 56.481 106.962,56.524 107.127,57.086 106.912 C 57.483 106.759,57.615 107.722,57.667 111.157 C 57.703 113.601,57.748 115.915,57.767 116.300 C 57.785 116.685,58.115 117.129,58.500 117.287 C 58.885 117.445,59.200 117.782,59.200 118.036 C 59.200 118.355,58.983 118.330,58.500 117.956 C 57.839 117.444,57.837 117.458,58.475 118.211 C 59.005 118.836,59.165 119.915,59.215 123.204 C 59.270 126.754,59.393 127.492,60.019 128.000 C 60.656 128.517,60.771 129.280,60.844 133.521 C 60.919 137.836,61.020 138.490,61.665 138.835 C 62.069 139.051,62.386 139.447,62.368 139.714 C 62.345 140.080,62.287 140.077,62.135 139.700 C 62.024 139.425,61.740 139.200,61.505 139.200 C 61.269 139.200,61.361 139.515,61.709 139.900 C 62.177 140.419,62.369 141.622,62.446 144.542 C 62.525 147.513,62.717 148.695,63.225 149.342 C 63.718 149.970,63.967 151.380,64.156 154.600 C 64.497 160.434,64.639 161.293,65.351 161.814 C 65.820 162.156,65.971 163.276,66.027 166.824 C 66.089 170.694,66.212 171.490,66.831 172.027 C 67.457 172.570,67.571 173.363,67.625 177.575 C 67.679 181.760,67.798 182.598,68.425 183.225 C 69.042 183.842,69.172 184.678,69.227 188.376 C 69.263 190.813,69.451 192.692,69.646 192.571 C 69.841 192.451,70.000 192.708,70.000 193.143 C 70.000 193.578,70.160 193.993,70.356 194.067 C 70.552 194.140,70.784 196.493,70.872 199.295 C 70.984 202.903,71.190 204.538,71.574 204.895 C 72.018 205.307,72.059 205.290,71.800 204.800 C 71.581 204.385,71.613 204.323,71.906 204.600 C 72.139 204.820,72.380 206.890,72.442 209.200 C 72.503 211.510,72.714 213.617,72.911 213.882 C 73.108 214.148,73.160 214.540,73.028 214.755 C 72.895 214.969,72.998 215.275,73.255 215.434 C 73.572 215.630,73.620 215.541,73.403 215.162 C 73.181 214.773,73.214 214.723,73.509 215.000 C 73.743 215.220,74.050 217.547,74.191 220.172 C 74.500 225.918,74.438 225.563,75.300 226.467 C 75.875 227.069,76.000 227.945,76.000 231.376 C 76.000 233.907,76.168 235.657,76.427 235.817 C 76.662 235.962,76.761 236.324,76.648 236.620 C 76.515 236.967,76.647 237.080,77.020 236.937 C 77.532 236.740,78.016 244.609,77.614 246.600 C 77.570 246.820,77.660 246.874,77.814 246.719 C 78.483 246.051,79.200 247.650,79.200 249.809 C 79.200 251.738,79.319 252.106,80.000 252.284 C 80.751 252.481,81.001 253.581,80.909 256.288 C 80.900 256.556,81.232 256.883,81.646 257.015 C 82.090 257.155,82.421 257.655,82.450 258.227 C 82.478 258.762,82.545 259.380,82.600 259.600 C 82.655 259.820,82.723 260.180,82.750 260.400 C 82.778 260.620,83.013 260.755,83.273 260.700 C 83.534 260.645,84.124 261.375,84.584 262.323 C 85.045 263.270,85.552 263.915,85.711 263.756 C 85.870 263.597,86.000 263.935,86.000 264.506 C 86.000 265.195,86.270 265.632,86.800 265.800 C 87.240 265.940,87.600 266.370,87.600 266.757 C 87.600 267.144,88.044 267.878,88.588 268.388 C 89.131 268.899,89.510 269.425,89.430 269.558 C 89.254 269.849,90.040 270.620,90.600 270.707 C 90.820 270.741,91.058 271.135,91.128 271.584 C 91.198 272.033,91.507 272.400,91.814 272.400 C 92.121 272.400,92.565 272.760,92.800 273.200 C 93.035 273.640,93.410 274.000,93.632 274.000 C 93.855 274.000,94.486 274.450,95.036 275.000 C 95.586 275.550,96.388 276.000,96.818 276.000 C 97.254 276.000,97.600 276.271,97.600 276.613 C 97.600 276.949,97.915 277.343,98.300 277.486 C 98.685 277.630,99.235 278.074,99.523 278.474 C 99.824 278.893,100.544 279.200,101.223 279.200 C 102.133 279.200,102.400 279.381,102.400 280.000 C 102.400 280.618,102.667 280.800,103.573 280.800 C 104.348 280.800,104.823 281.042,104.973 281.515 C 105.115 281.961,105.654 282.264,106.407 282.322 C 107.071 282.372,107.971 282.771,108.407 283.207 C 108.988 283.788,109.739 284.000,111.218 284.000 C 112.873 284.000,113.214 284.118,113.118 284.659 C 112.988 285.385,113.215 285.440,118.000 285.846 C 119.650 285.986,121.113 286.278,121.252 286.496 C 121.401 286.730,121.591 286.669,121.720 286.345 C 121.871 285.965,121.946 286.012,121.968 286.500 C 121.986 286.885,122.225 287.225,122.500 287.257 C 123.674 287.390,124.692 287.467,126.100 287.532 L 127.600 287.600 127.600 343.800 L 127.600 400.000 143.400 400.000 L 159.200 400.000 159.200 378.771 C 159.200 357.716,159.333 355.467,160.512 356.646 C 160.627 356.760,160.693 356.526,160.660 356.127 C 160.621 355.649,160.917 355.355,161.523 355.269 C 162.272 355.163,162.357 355.031,161.974 354.569 C 161.661 354.192,161.647 354.000,161.930 354.000 C 162.166 354.000,162.841 353.553,163.430 353.007 C 164.019 352.462,164.703 352.130,164.950 352.272 C 165.198 352.413,165.273 352.388,165.118 352.215 C 164.791 351.853,171.656 344.813,172.090 345.066 C 172.249 345.159,172.386 332.324,172.395 316.546 C 172.403 300.767,172.462 287.804,172.526 287.741 C 172.590 287.677,193.269 287.574,218.479 287.512 C 260.701 287.409,264.375 287.347,265.058 286.730 C 265.575 286.263,266.651 286.030,268.600 285.962 C 271.507 285.860,274.000 285.148,274.000 284.420 C 274.000 284.189,274.765 283.998,275.700 283.995 C 278.085 283.987,279.188 283.634,278.930 282.961 C 278.764 282.530,279.141 282.400,280.557 282.400 C 282.133 282.400,282.400 282.284,282.400 281.600 C 282.400 280.937,282.667 280.800,283.953 280.800 C 285.170 280.800,285.552 280.627,285.716 280.000 C 285.877 279.382,286.262 279.200,287.400 279.200 C 288.509 279.200,288.924 279.013,289.072 278.446 C 289.207 277.932,289.768 277.611,290.833 277.441 C 291.693 277.304,292.376 277.058,292.351 276.896 C 292.247 276.222,292.420 275.603,292.700 275.647 C 293.584 275.787,294.000 275.516,294.000 274.800 C 294.000 274.296,294.267 274.000,294.720 274.000 C 295.116 274.000,295.682 273.775,295.979 273.500 C 296.417 273.093,296.455 273.112,296.182 273.600 C 295.893 274.116,295.941 274.124,296.519 273.655 C 296.889 273.355,297.093 272.950,296.972 272.755 C 296.851 272.560,297.033 272.400,297.376 272.400 C 297.733 272.400,298.000 272.058,298.000 271.600 C 298.000 271.160,298.166 270.800,298.369 270.800 C 298.572 270.800,298.947 270.165,299.203 269.390 C 299.806 267.562,303.998 263.200,305.151 263.200 C 306.063 263.200,341.318 298.064,342.300 299.937 C 342.575 300.462,342.800 301.399,342.800 302.019 C 342.800 302.795,343.049 303.225,343.600 303.400 C 344.040 303.540,344.400 303.835,344.400 304.056 C 344.400 304.587,345.430 305.600,345.971 305.600 C 346.207 305.600,346.400 305.765,346.400 305.968 C 346.400 306.170,348.035 307.970,350.032 309.968 C 352.030 311.965,353.830 313.600,354.032 313.600 C 354.235 313.600,354.400 313.793,354.400 314.029 C 354.400 314.582,355.418 315.600,355.971 315.600 C 356.207 315.600,356.400 315.765,356.400 315.968 C 356.400 316.170,358.035 317.970,360.032 319.968 C 362.030 321.965,363.830 323.600,364.032 323.600 C 364.235 323.600,364.400 323.793,364.400 324.029 C 364.400 324.582,365.418 325.600,365.971 325.600 C 366.207 325.600,366.400 325.745,366.400 325.922 C 366.400 326.099,367.030 326.931,367.800 327.772 L 369.200 329.301 369.200 364.650 L 369.200 400.000 384.600 400.000 L 400.000 400.000 400.000 348.800 C 400.000 314.933,399.865 297.600,399.600 297.600 C 399.380 297.600,399.200 297.240,399.200 296.800 C 399.200 296.303,398.933 296.000,398.495 296.000 C 398.107 296.000,397.612 295.595,397.395 295.100 C 397.178 294.605,396.730 294.200,396.400 294.200 C 396.070 294.200,395.800 293.930,395.800 293.600 C 395.800 293.270,395.395 292.822,394.900 292.605 C 394.405 292.388,394.000 291.893,394.000 291.505 C 394.000 291.067,393.697 290.800,393.200 290.800 C 392.667 290.800,392.400 290.533,392.400 290.000 C 392.400 289.467,392.133 289.200,391.600 289.200 C 391.067 289.200,390.800 288.933,390.800 288.400 C 390.800 287.867,390.533 287.600,390.000 287.600 C 389.467 287.600,389.200 287.333,389.200 286.800 C 389.200 286.284,388.933 286.000,388.450 286.000 C 387.226 286.000,387.182 284.882,387.180 254.004 C 387.179 223.434,387.156 222.322,386.498 221.500 C 386.278 221.225,385.973 219.020,385.821 216.600 C 385.669 214.180,385.527 211.978,385.506 211.706 C 385.484 211.434,385.157 211.113,384.779 210.993 C 384.245 210.824,384.054 210.185,383.924 208.139 C 383.804 206.266,383.560 205.360,383.078 205.008 C 382.658 204.700,382.400 203.964,382.400 203.070 C 382.400 202.038,382.173 201.507,381.600 201.200 C 381.030 200.895,380.800 200.362,380.800 199.348 C 380.800 198.262,380.611 197.876,380.000 197.716 C 379.423 197.565,379.200 197.170,379.200 196.299 C 379.200 194.957,377.637 193.200,376.444 193.200 C 376.011 193.200,375.075 192.215,374.069 190.700 C 371.533 186.881,371.156 186.353,369.421 184.200 C 366.407 180.460,357.374 171.887,354.250 169.800 C 353.591 169.360,352.590 168.685,352.026 168.299 C 351.462 167.914,350.446 167.339,349.768 167.022 C 349.091 166.705,348.304 166.166,348.019 165.823 C 347.735 165.480,347.188 165.200,346.805 165.200 C 346.422 165.200,345.650 164.840,345.091 164.400 C 344.531 163.960,343.832 163.594,343.537 163.587 C 343.242 163.581,342.100 163.132,341.000 162.591 C 339.900 162.050,338.635 161.606,338.189 161.604 C 337.743 161.602,337.005 161.339,336.549 161.019 C 336.093 160.700,334.838 160.291,333.761 160.110 C 332.186 159.846,331.700 159.568,331.279 158.691 C 330.992 158.091,330.564 157.600,330.329 157.600 C 330.058 157.600,330.084 157.381,330.400 157.000 C 330.759 156.568,330.769 156.400,330.436 156.400 C 330.183 156.400,329.871 156.670,329.745 157.000 C 329.406 157.881,327.484 157.747,326.893 156.800 C 326.396 156.004,325.960 156.000,246.886 156.000 C 167.873 156.000,167.374 155.995,166.693 155.200 C 166.316 154.760,165.691 154.389,165.304 154.374 C 162.839 154.285,161.759 153.990,161.152 153.240 C 160.778 152.778,160.088 152.400,159.619 152.400 C 159.150 152.400,158.380 152.040,157.908 151.600 C 157.436 151.160,156.825 150.800,156.552 150.800 C 156.278 150.800,155.940 150.440,155.800 150.000 C 155.660 149.560,155.198 149.200,154.773 149.200 C 154.332 149.200,154.000 148.926,154.000 148.563 C 154.000 148.212,153.640 147.831,153.200 147.716 C 152.760 147.601,152.400 147.241,152.400 146.916 C 152.400 146.591,152.040 146.231,151.600 146.116 C 151.157 146.000,150.800 145.570,150.800 145.153 C 150.800 144.478,150.373 144.215,149.500 144.353 C 149.335 144.379,149.200 143.950,149.200 143.400 C 149.200 141.960,149.175 141.852,148.721 141.304 C 148.494 141.032,148.150 140.907,147.955 141.028 C 147.760 141.149,147.600 140.711,147.600 140.056 C 147.600 138.482,147.235 137.600,146.584 137.600 C 146.044 137.600,145.360 136.107,145.731 135.736 C 146.054 135.412,145.166 133.200,144.712 133.200 C 144.474 133.200,144.514 133.456,144.808 133.809 C 145.225 134.312,145.210 134.379,144.721 134.191 C 144.333 134.042,144.104 133.332,144.059 132.138 C 143.986 130.201,143.473 128.868,142.928 129.200 C 142.748 129.310,142.545 128.635,142.477 127.700 C 142.378 126.326,142.205 126.000,141.577 126.000 C 140.837 126.000,140.588 124.906,140.693 122.100 C 140.703 121.825,140.465 121.600,140.163 121.600 C 139.862 121.600,139.522 121.150,139.408 120.600 C 139.293 120.050,139.107 119.150,138.992 118.600 C 138.878 118.050,138.542 117.600,138.244 117.600 C 137.774 117.600,137.445 116.346,137.119 113.318 C 137.090 113.052,136.929 112.920,136.761 113.024 C 136.344 113.282,136.078 112.777,135.800 111.200 C 135.507 109.535,135.302 109.200,134.576 109.200 C 134.167 109.200,134.000 108.719,134.000 107.544 C 134.000 106.452,133.762 105.693,133.300 105.314 C 132.842 104.939,132.807 104.830,133.200 105.000 C 133.593 105.170,133.558 105.061,133.100 104.686 C 132.715 104.370,132.400 103.651,132.400 103.089 C 132.400 101.585,132.010 100.821,131.367 101.068 C 130.928 101.236,130.800 100.869,130.800 99.443 C 130.800 98.362,130.617 97.600,130.357 97.600 C 130.114 97.600,130.022 97.321,130.153 96.979 C 130.285 96.634,130.221 96.464,130.007 96.596 C 129.616 96.838,129.220 95.741,129.095 94.067 C 129.056 93.554,128.704 92.963,128.312 92.753 C 127.921 92.543,127.600 91.943,127.600 91.419 C 127.600 90.064,127.202 89.200,126.577 89.200 C 126.217 89.200,125.950 88.408,125.768 86.800 C 125.544 84.819,125.366 84.400,124.748 84.400 C 124.139 84.400,124.000 84.096,124.000 82.763 C 124.000 81.462,123.836 81.082,123.200 80.916 C 122.564 80.750,122.390 80.347,122.350 78.953 C 122.275 76.308,122.236 76.191,121.491 76.318 C 120.938 76.412,120.799 76.132,120.794 74.918 C 120.787 73.219,120.296 72.170,119.685 72.548 C 119.444 72.697,119.188 72.030,119.051 70.899 C 118.712 68.090,118.694 68.019,118.355 68.228 C 117.969 68.467,117.145 65.613,117.455 65.111 C 117.579 64.910,117.302 64.647,116.840 64.526 C 116.378 64.406,115.977 64.013,115.949 63.653 C 115.921 63.294,115.827 62.550,115.740 62.000 C 115.654 61.450,115.557 60.775,115.525 60.500 C 115.493 60.225,115.137 60.000,114.733 60.000 C 114.330 60.000,114.021 59.865,114.047 59.700 C 114.313 58.018,113.917 56.303,113.221 56.121 C 112.635 55.968,112.412 55.507,112.321 54.259 C 112.237 53.105,112.017 52.600,111.600 52.600 C 111.214 52.600,110.955 52.131,110.874 51.287 C 110.800 50.525,110.423 49.771,109.974 49.491 C 109.548 49.225,109.200 48.691,109.200 48.304 C 109.200 47.867,108.897 47.600,108.400 47.600 C 107.872 47.600,107.600 47.333,107.600 46.816 C 107.600 46.384,107.252 45.707,106.826 45.310 C 106.400 44.914,105.866 44.100,105.639 43.502 C 105.359 42.766,105.028 42.491,104.613 42.650 C 104.157 42.825,104.000 42.613,104.000 41.819 C 104.000 41.233,103.856 40.842,103.681 40.950 C 102.688 41.563,102.448 40.296,102.370 34.037 C 102.299 28.251,102.203 27.403,101.545 26.745 C 100.906 26.106,100.475 23.255,100.753 21.500 C 100.779 21.335,100.665 21.221,100.500 21.247 C 99.563 21.395,99.264 21.022,99.021 19.400 C 98.845 18.226,98.551 17.600,98.175 17.600 C 97.656 17.600,97.424 17.116,97.553 16.300 C 97.579 16.135,97.252 16.000,96.827 16.000 C 96.402 16.000,95.943 15.649,95.806 15.220 C 95.670 14.792,95.228 14.336,94.823 14.207 C 94.418 14.079,93.994 13.619,93.881 13.187 C 93.767 12.754,93.388 12.400,93.037 12.400 C 92.667 12.400,92.400 12.065,92.400 11.600 C 92.400 11.067,92.133 10.800,91.600 10.800 C 91.067 10.800,90.800 10.533,90.800 10.000 C 90.800 9.467,90.533 9.200,90.000 9.200 C 89.467 9.200,89.200 8.933,89.200 8.400 C 89.200 7.883,88.933 7.600,88.447 7.600 C 88.030 7.600,87.600 7.243,87.484 6.800 C 87.369 6.360,87.000 6.000,86.664 6.000 C 86.329 6.000,85.943 5.649,85.806 5.220 C 85.670 4.792,85.228 4.336,84.823 4.207 C 84.418 4.079,83.994 3.619,83.881 3.187 C 83.767 2.754,83.388 2.400,83.037 2.400 C 82.667 2.400,82.400 2.065,82.400 1.600 C 82.400 1.067,82.133 0.800,81.600 0.800 C 81.160 0.800,80.800 0.620,80.800 0.400 C 80.800 0.159,79.133 0.000,76.600 0.000 C 74.067 0.000,72.400 0.159,72.400 0.400 M69.776 5.318 C 69.667 5.602,69.628 8.527,69.690 11.818 L 69.803 17.800 70.002 11.299 C 70.197 4.909,70.173 4.284,69.776 5.318 M68.819 45.220 C 70.403 46.843,71.339 48.193,71.664 49.320 C 71.930 50.244,72.385 51.355,72.674 51.789 C 73.408 52.890,73.408 62.310,72.674 63.411 C 72.385 63.845,71.933 64.946,71.670 65.858 C 71.386 66.847,70.418 68.342,69.276 69.558 L 67.359 71.600 64.763 71.600 C 61.779 71.600,59.949 70.196,57.725 66.200 C 56.015 63.129,56.011 52.084,57.718 49.000 C 61.405 42.338,64.861 41.161,68.819 45.220 M1.239 78.200 C 1.481 78.442,6.878 78.679,14.919 78.800 L 28.200 79.000 28.322 81.372 C 28.417 83.215,28.274 83.974,27.678 84.780 C 27.257 85.349,26.787 86.212,26.633 86.697 C 26.243 87.923,22.507 91.104,20.807 91.656 C 20.033 91.908,19.045 92.358,18.611 92.657 C 18.043 93.048,16.306 93.202,12.411 93.206 C 9.435 93.209,6.781 93.351,6.514 93.521 C 6.247 93.691,8.947 93.755,12.514 93.665 C 18.092 93.523,19.134 93.395,19.954 92.750 C 20.479 92.337,21.244 92.000,21.654 92.000 C 22.064 92.000,22.760 91.640,23.200 91.200 C 23.640 90.760,24.111 90.400,24.246 90.400 C 24.631 90.400,27.200 87.490,27.200 87.053 C 27.200 86.839,27.499 86.333,27.864 85.930 C 28.229 85.526,28.663 84.432,28.829 83.498 C 28.995 82.564,29.253 81.165,29.403 80.388 C 29.639 79.167,29.549 78.910,28.738 78.491 C 27.531 77.866,0.621 77.582,1.239 78.200 M6.692 96.370 C 6.551 96.910,6.656 97.077,7.045 96.927 C 7.350 96.810,7.600 96.464,7.600 96.157 C 7.600 95.326,6.924 95.484,6.692 96.370 M384.000 160.176 C 384.000 160.493,384.178 160.863,384.395 160.997 C 384.630 161.142,384.684 160.963,384.527 160.555 C 384.335 160.053,384.406 159.956,384.794 160.196 C 385.146 160.414,385.228 160.369,385.038 160.062 C 384.639 159.415,384.000 159.486,384.000 160.176 M382.717 185.880 C 383.136 186.040,383.137 186.202,382.724 186.739 C 382.370 187.198,382.487 187.167,383.107 186.638 C 384.192 185.712,384.192 185.780,383.100 185.726 C 382.605 185.701,382.433 185.771,382.717 185.880 " stroke="none" fill="#bc946b" fill-rule="evenodd"></path><path id="path1" d="M44.000 0.400 C 44.000 0.620,43.749 0.800,43.443 0.800 C 42.842 0.800,42.272 1.869,42.594 2.391 C 42.702 2.566,42.415 2.807,41.955 2.928 C 41.471 3.054,41.235 3.334,41.395 3.593 C 41.597 3.918,41.824 3.912,42.236 3.570 C 42.607 3.262,42.800 3.247,42.800 3.527 C 42.800 3.761,42.632 4.057,42.427 4.183 C 41.869 4.528,41.854 34.800,42.411 34.800 C 42.651 34.800,42.724 34.999,42.574 35.243 C 42.383 35.551,42.196 35.521,41.956 35.143 C 41.688 34.720,41.611 34.755,41.606 35.300 C 41.597 36.340,44.045 36.261,44.707 35.200 C 44.982 34.760,45.537 34.400,45.941 34.400 C 46.345 34.400,47.002 34.040,47.400 33.600 C 47.798 33.160,48.473 32.800,48.899 32.800 C 49.325 32.800,50.131 32.440,50.691 32.000 C 51.250 31.560,52.091 31.200,52.560 31.200 C 53.028 31.200,54.039 30.866,54.806 30.459 C 55.573 30.051,57.321 29.592,58.690 29.440 C 60.060 29.287,61.680 28.902,62.290 28.584 C 63.025 28.201,64.655 28.004,67.113 28.002 C 71.485 28.000,71.341 28.170,70.824 23.600 C 70.293 18.908,69.840 17.404,69.096 17.864 C 68.864 18.008,68.794 17.934,68.939 17.698 C 69.279 17.149,68.821 15.940,68.378 16.214 C 67.992 16.452,67.114 15.019,67.444 14.689 C 67.563 14.570,67.287 14.354,66.830 14.210 C 66.374 14.065,66.000 13.768,66.000 13.549 C 66.000 13.331,65.822 13.263,65.605 13.397 C 65.378 13.537,65.311 13.377,65.447 13.021 C 65.613 12.588,65.445 12.400,64.889 12.400 C 64.430 12.400,64.005 12.062,63.884 11.600 C 63.769 11.160,63.400 10.800,63.064 10.800 C 62.729 10.800,62.340 10.440,62.200 10.000 C 62.060 9.560,61.688 9.200,61.373 9.200 C 61.058 9.200,60.800 8.942,60.800 8.627 C 60.800 8.312,60.440 7.940,60.000 7.800 C 59.560 7.660,59.200 7.271,59.200 6.936 C 59.200 6.600,58.840 6.231,58.400 6.116 C 57.938 5.995,57.600 5.570,57.600 5.111 C 57.600 4.555,57.412 4.387,56.979 4.553 C 56.638 4.684,56.439 4.658,56.537 4.495 C 56.782 4.092,55.751 3.183,55.421 3.512 C 55.276 3.657,55.276 3.466,55.422 3.088 C 55.617 2.579,55.478 2.400,54.889 2.400 C 54.430 2.400,54.005 2.062,53.884 1.600 C 53.769 1.160,53.388 0.800,53.037 0.800 C 52.687 0.800,52.400 0.620,52.400 0.400 C 52.400 0.159,50.733 0.000,48.200 0.000 C 45.667 0.000,44.000 0.159,44.000 0.400 M70.066 4.277 C 69.757 4.853,69.735 5.237,70.002 5.401 C 70.471 5.691,70.955 4.666,70.705 3.914 C 70.594 3.583,70.369 3.711,70.066 4.277 M40.800 20.733 C 40.800 29.203,40.935 35.999,41.100 35.834 C 41.665 35.270,41.861 5.333,41.300 5.333 C 40.909 5.333,40.800 8.680,40.800 20.733 M59.600 128.951 C 59.600 129.034,59.870 129.326,60.200 129.600 C 60.691 130.008,60.800 129.980,60.800 129.449 C 60.800 129.092,60.530 128.800,60.200 128.800 C 59.870 128.800,59.600 128.868,59.600 128.951 M352.797 141.189 C 353.305 141.511,353.311 141.643,352.838 142.083 C 352.532 142.368,352.398 142.395,352.539 142.142 C 352.680 141.890,352.512 141.575,352.165 141.442 C 351.308 141.113,351.200 141.133,351.200 141.624 C 351.200 141.857,351.378 141.937,351.595 141.803 C 351.813 141.668,351.901 141.793,351.791 142.079 C 351.659 142.425,350.924 142.575,349.604 142.526 C 347.926 142.464,347.497 142.605,346.851 143.426 C 345.886 144.652,345.044 144.720,345.418 143.542 C 345.656 142.792,345.614 142.754,345.087 143.242 C 344.756 143.549,344.578 143.954,344.692 144.143 C 344.807 144.331,344.533 144.369,344.084 144.227 C 343.635 144.084,343.150 144.158,343.006 144.390 C 342.862 144.623,342.558 144.698,342.330 144.556 C 342.062 144.391,342.013 144.612,342.192 145.175 C 342.388 145.791,342.311 146.029,341.935 145.978 C 340.180 145.739,339.200 146.033,339.200 146.800 C 339.200 147.333,338.933 147.600,338.400 147.600 C 337.876 147.600,337.600 147.867,337.600 148.372 C 337.600 148.868,337.278 149.190,336.700 149.272 C 336.099 149.358,335.839 149.633,335.918 150.100 C 335.982 150.485,335.837 150.800,335.594 150.800 C 335.351 150.800,335.256 150.632,335.383 150.428 C 335.509 150.223,335.428 149.941,335.202 149.801 C 334.828 149.570,334.108 151.763,334.315 152.500 C 334.362 152.665,334.046 152.800,333.614 152.800 C 332.836 152.800,331.819 154.086,332.254 154.520 C 332.378 154.644,332.122 154.652,331.686 154.538 C 330.990 154.356,330.899 154.520,330.946 155.865 C 331.017 157.872,332.435 159.113,335.060 159.463 C 336.127 159.605,337.429 160.054,337.954 160.461 C 338.479 160.867,339.486 161.200,340.192 161.200 C 340.968 161.200,341.762 161.516,342.200 162.000 C 342.598 162.440,343.408 162.800,344.000 162.800 C 344.592 162.800,345.402 163.160,345.800 163.600 C 346.198 164.040,346.858 164.400,347.266 164.400 C 347.674 164.400,348.316 164.760,348.693 165.200 C 349.070 165.640,349.689 166.000,350.068 166.000 C 350.448 166.000,351.244 166.450,351.838 167.000 C 352.431 167.550,353.161 168.000,353.458 168.000 C 353.756 168.000,354.000 168.168,354.000 168.373 C 354.000 168.578,354.399 168.873,354.886 169.027 C 355.373 169.182,356.557 170.094,357.517 171.054 C 358.478 172.014,359.353 172.800,359.463 172.800 C 359.573 172.800,360.473 173.610,361.463 174.600 C 362.453 175.590,363.429 176.400,363.632 176.400 C 363.834 176.400,364.000 176.649,364.000 176.953 C 364.000 177.258,364.360 177.601,364.800 177.716 C 365.240 177.831,365.600 178.200,365.600 178.536 C 365.600 178.871,365.960 179.260,366.400 179.400 C 366.840 179.540,367.202 179.867,367.204 180.127 C 367.206 180.387,367.924 181.230,368.800 182.000 C 369.676 182.770,370.394 183.631,370.396 183.913 C 370.398 184.194,370.646 184.520,370.947 184.635 C 371.567 184.873,374.000 188.476,374.000 189.156 C 374.000 189.400,374.175 189.600,374.390 189.600 C 374.604 189.600,375.048 190.119,375.376 190.753 C 376.254 192.451,377.757 192.680,379.466 191.377 C 380.228 190.795,380.752 190.219,380.630 190.096 C 380.254 189.721,381.225 188.835,381.779 189.047 C 382.089 189.166,382.298 188.954,382.295 188.524 C 382.279 186.043,382.416 185.600,383.200 185.600 C 383.797 185.600,384.000 185.333,384.000 184.547 C 384.000 183.968,384.383 183.162,384.851 182.756 C 385.458 182.229,385.730 181.473,385.802 180.109 C 385.949 177.300,385.947 177.310,386.629 176.629 C 386.974 176.283,387.100 176.000,386.909 176.000 C 386.717 176.000,386.344 176.216,386.080 176.480 C 385.707 176.853,385.600 176.809,385.600 176.280 C 385.600 175.906,385.802 175.600,386.049 175.600 C 386.345 175.600,386.314 175.362,385.956 174.900 C 385.442 174.236,385.456 174.236,386.240 174.902 C 387.220 175.733,387.244 175.666,387.334 171.800 C 387.384 169.677,387.273 169.026,386.876 169.108 C 386.486 169.188,386.453 169.034,386.748 168.508 C 387.058 167.954,386.955 167.687,386.272 167.283 C 385.415 166.776,385.417 166.771,386.400 167.004 C 387.393 167.241,387.394 167.237,386.593 166.521 C 385.978 165.972,385.799 165.348,385.842 163.908 C 385.873 162.867,385.766 162.097,385.605 162.197 C 385.444 162.296,385.361 161.933,385.421 161.389 C 385.481 160.845,385.355 160.400,385.141 160.400 C 384.928 160.400,384.881 160.192,385.038 159.938 C 385.211 159.659,385.148 159.585,384.879 159.751 C 384.635 159.902,384.548 160.319,384.685 160.678 C 384.853 161.115,384.781 161.235,384.468 161.042 C 384.211 160.883,384.000 159.868,384.000 158.786 C 384.000 157.118,383.844 156.717,382.980 156.150 C 382.419 155.782,382.050 155.248,382.159 154.961 C 382.269 154.675,382.008 154.330,381.580 154.194 C 381.151 154.057,380.800 153.778,380.800 153.573 C 380.800 152.410,380.083 151.101,379.608 151.395 C 379.414 151.515,379.140 151.427,379.000 151.200 C 378.860 150.973,378.532 150.906,378.272 151.052 C 377.954 151.231,377.963 151.142,378.300 150.779 C 378.911 150.120,378.945 149.600,378.376 149.600 C 378.143 149.600,378.052 149.761,378.174 149.958 C 378.296 150.155,378.156 150.408,377.864 150.520 C 377.572 150.632,377.314 150.516,377.290 150.262 C 377.114 148.381,376.775 147.908,375.500 147.766 C 375.005 147.712,374.465 147.652,374.300 147.633 C 374.135 147.615,374.000 147.240,374.000 146.800 C 374.000 146.276,373.733 146.000,373.227 146.000 C 372.802 146.000,372.340 145.640,372.200 145.200 C 372.058 144.753,371.560 144.374,371.073 144.341 C 370.593 144.308,369.841 144.263,369.402 144.241 C 368.963 144.218,368.603 143.930,368.602 143.600 C 368.601 143.252,368.180 142.961,367.600 142.908 C 365.014 142.669,363.342 142.257,362.715 141.706 C 362.338 141.374,361.753 141.209,361.415 141.339 C 361.077 141.469,360.800 141.401,360.800 141.187 C 360.800 140.974,360.440 140.800,360.000 140.800 C 359.560 140.800,359.200 140.976,359.200 141.190 C 359.200 141.428,358.850 141.448,358.300 141.242 C 357.065 140.777,354.703 141.183,354.120 141.960 C 353.709 142.508,353.672 142.471,353.867 141.700 C 354.054 140.955,353.930 140.801,353.147 140.806 C 352.398 140.811,352.325 140.891,352.797 141.189 M167.084 155.200 C 167.199 155.640,167.570 156.000,167.909 156.000 C 168.426 156.000,168.409 155.873,167.800 155.200 C 167.402 154.760,167.031 154.400,166.975 154.400 C 166.920 154.400,166.969 154.760,167.084 155.200 M377.824 193.161 C 377.651 193.441,377.707 193.867,377.948 194.108 C 378.538 194.698,378.763 194.374,378.419 193.427 C 378.211 192.855,378.056 192.786,377.824 193.161 M302.578 266.389 C 300.176 268.890,298.334 271.570,298.657 272.093 C 298.762 272.262,298.567 272.400,298.224 272.400 C 297.664 272.400,297.600 275.436,297.600 301.776 C 297.600 323.550,297.480 331.227,297.138 331.438 C 296.852 331.615,296.785 331.548,296.962 331.262 C 297.119 331.008,297.065 330.800,296.842 330.800 C 296.430 330.800,296.033 332.390,295.883 334.649 C 295.828 335.474,295.627 335.831,295.290 335.702 C 294.902 335.553,294.890 335.374,295.239 334.953 C 295.546 334.584,295.557 334.400,295.273 334.400 C 294.550 334.400,294.305 335.204,294.833 335.840 C 295.243 336.333,295.230 336.422,294.768 336.323 C 294.383 336.239,294.205 336.554,294.216 337.300 C 294.224 337.905,294.089 338.400,293.916 338.400 C 293.742 338.400,293.600 338.681,293.600 339.024 C 293.600 339.367,293.420 339.536,293.200 339.400 C 292.794 339.149,292.716 339.397,292.628 341.215 C 292.601 341.774,292.179 342.909,291.689 343.738 C 291.200 344.567,290.800 345.585,290.800 346.000 C 290.800 346.415,290.485 346.990,290.100 347.277 C 289.691 347.583,289.378 348.383,289.347 349.200 C 289.242 351.949,289.047 352.716,288.506 352.509 C 288.105 352.355,288.089 352.175,288.439 351.753 C 288.773 351.350,288.776 351.200,288.449 351.200 C 287.945 351.200,287.938 351.221,287.803 353.307 C 287.741 354.263,287.390 355.088,286.844 355.562 C 286.149 356.165,285.976 356.775,285.949 358.732 C 285.918 360.892,285.821 361.169,285.057 361.278 C 284.457 361.363,284.187 361.700,284.157 362.400 C 284.079 364.186,284.011 364.343,283.199 364.600 C 282.561 364.803,282.401 365.197,282.414 366.527 C 282.442 369.319,282.343 369.636,281.520 369.375 C 280.868 369.168,280.794 369.321,280.936 370.601 C 281.068 371.802,280.941 372.135,280.228 372.460 C 279.609 372.742,279.332 373.263,279.264 374.276 C 279.205 375.150,278.828 375.998,278.284 376.479 C 277.798 376.909,277.589 377.169,277.819 377.057 C 278.050 376.945,278.500 377.018,278.819 377.220 C 279.282 377.513,279.233 377.589,278.578 377.594 C 277.895 377.599,277.740 377.886,277.657 379.300 C 277.602 380.235,277.360 381.180,277.120 381.400 C 276.818 381.676,276.770 381.645,276.965 381.300 C 277.120 381.025,277.065 380.800,276.842 380.800 C 276.430 380.800,276.033 382.390,275.883 384.649 C 275.828 385.474,275.627 385.831,275.290 385.702 C 274.902 385.553,274.890 385.374,275.239 384.953 C 275.546 384.584,275.557 384.400,275.273 384.400 C 274.550 384.400,274.305 385.204,274.833 385.840 C 275.243 386.333,275.230 386.422,274.768 386.323 C 274.367 386.236,274.200 386.589,274.200 387.521 C 274.200 388.399,273.910 389.071,273.337 389.521 C 272.805 389.940,272.505 390.583,272.553 391.200 C 272.597 391.750,272.220 392.871,271.716 393.692 C 271.212 394.513,270.800 395.537,270.800 395.968 C 270.800 396.400,270.617 396.866,270.393 397.004 C 270.170 397.142,270.093 397.427,270.223 397.638 C 270.353 397.848,270.244 397.970,269.980 397.910 C 269.716 397.849,269.417 398.025,269.317 398.300 C 269.216 398.575,269.323 398.800,269.554 398.800 C 269.786 398.800,269.871 399.070,269.745 399.400 C 269.430 400.220,300.584 400.320,300.967 399.500 C 301.153 399.100,301.247 399.100,301.433 399.500 C 301.869 400.435,302.270 400.004,302.325 398.543 C 302.355 397.741,302.673 396.761,303.031 396.365 C 303.620 395.714,304.080 393.723,304.059 391.908 C 304.054 391.527,304.199 391.124,304.380 391.012 C 304.561 390.900,304.685 391.102,304.655 391.461 C 304.625 391.820,304.815 392.190,305.077 392.283 C 305.339 392.375,305.565 392.125,305.579 391.726 C 305.658 389.356,305.849 388.600,306.367 388.600 C 307.071 388.600,307.391 387.765,306.821 387.413 C 306.590 387.270,306.400 387.343,306.400 387.576 C 306.400 387.809,306.198 388.000,305.951 388.000 C 305.633 388.000,305.641 387.832,305.980 387.424 C 306.243 387.107,306.676 386.931,306.941 387.033 C 307.237 387.146,307.457 386.787,307.509 386.109 C 307.556 385.499,307.955 384.701,308.397 384.336 C 309.196 383.675,309.529 382.949,308.837 383.377 C 308.638 383.500,308.664 382.985,308.895 382.232 C 309.137 381.441,309.642 380.778,310.091 380.660 C 310.683 380.506,310.849 380.144,310.793 379.129 C 310.683 377.152,310.760 376.728,311.180 376.988 C 311.715 377.318,312.400 375.882,312.400 374.430 C 312.400 373.640,312.683 373.030,313.200 372.707 C 313.762 372.356,314.000 371.774,314.000 370.750 C 314.000 369.674,314.192 369.243,314.733 369.102 C 315.137 368.996,315.494 368.660,315.528 368.355 C 315.562 368.050,315.637 367.350,315.695 366.800 C 315.753 366.250,316.160 365.463,316.600 365.051 C 317.397 364.305,317.397 364.303,316.500 364.578 C 315.956 364.745,315.600 364.685,315.600 364.427 C 315.600 364.192,315.793 364.000,316.029 364.000 C 316.642 364.000,317.600 362.958,317.600 362.291 C 317.600 361.979,317.945 361.412,318.367 361.030 C 318.895 360.552,319.096 359.923,319.011 359.012 C 318.911 357.941,319.070 357.605,319.844 357.253 C 320.889 356.777,321.084 356.181,320.300 355.865 C 319.900 355.704,319.900 355.657,320.300 355.632 C 320.575 355.614,320.800 355.234,320.800 354.787 C 320.800 354.341,321.069 353.872,321.398 353.746 C 321.726 353.619,321.894 353.352,321.770 353.152 C 321.646 352.951,321.377 352.891,321.172 353.017 C 320.968 353.144,320.800 353.044,320.800 352.797 C 320.800 352.541,321.119 352.447,321.539 352.581 C 322.150 352.775,322.284 352.590,322.315 351.511 C 322.337 350.750,322.667 349.951,323.108 349.594 C 323.589 349.204,323.885 348.415,323.922 347.421 C 323.976 345.989,324.595 345.026,325.214 345.409 C 325.471 345.567,325.496 345.469,325.712 343.462 C 325.779 342.836,326.145 342.150,326.526 341.938 C 326.906 341.725,327.112 341.382,326.985 341.175 C 326.857 340.969,326.940 340.800,327.169 340.800 C 327.397 340.800,327.521 340.254,327.443 339.587 C 327.341 338.710,327.530 338.214,328.126 337.797 C 328.962 337.211,329.099 336.816,329.267 334.518 C 329.337 333.566,329.486 333.339,329.845 333.637 C 330.445 334.135,330.637 333.787,330.743 332.016 C 330.788 331.254,330.973 330.534,331.153 330.416 C 331.670 330.075,332.400 328.520,332.400 327.758 C 332.400 327.376,332.689 326.744,333.041 326.355 C 333.394 325.965,333.754 324.871,333.842 323.923 C 333.948 322.771,334.293 321.958,334.882 321.470 C 335.375 321.061,335.772 320.267,335.782 319.670 C 335.793 319.022,336.024 318.600,336.367 318.600 C 337.071 318.600,337.391 317.765,336.821 317.413 C 336.590 317.270,336.400 317.343,336.400 317.576 C 336.400 317.809,336.198 318.000,335.951 318.000 C 335.633 318.000,335.641 317.832,335.980 317.424 C 336.243 317.107,336.701 316.941,336.997 317.054 C 337.379 317.201,337.503 316.957,337.422 316.217 C 337.344 315.505,337.608 314.937,338.254 314.429 C 339.152 313.723,339.608 312.901,338.837 313.377 C 338.638 313.500,338.664 312.985,338.895 312.232 C 339.137 311.441,339.642 310.778,340.091 310.660 C 340.683 310.506,340.849 310.144,340.793 309.129 C 340.683 307.152,340.760 306.728,341.180 306.988 C 341.849 307.401,342.400 305.723,342.400 303.269 C 342.400 301.519,342.240 300.824,341.800 300.655 C 341.470 300.529,341.200 300.250,341.200 300.035 C 341.200 299.561,305.681 264.000,305.208 264.000 C 305.023 264.000,303.840 265.075,302.578 266.389 M172.700 341.431 C 172.535 341.597,172.400 342.099,172.400 342.547 C 172.400 343.135,172.521 343.239,172.838 342.922 C 173.078 342.682,173.213 342.180,173.138 341.807 C 173.062 341.433,172.865 341.264,172.700 341.431 " stroke="none" fill="#8c543b" fill-rule="evenodd"></path><path id="path2" d="M33.065 42.992 C 32.699 43.358,32.400 43.803,32.400 43.982 C 32.400 44.161,32.040 44.401,31.600 44.516 C 31.160 44.631,30.800 45.012,30.800 45.363 C 30.800 45.713,30.526 46.000,30.190 46.000 C 29.855 46.000,29.409 46.451,29.199 47.003 C 28.989 47.555,28.589 47.960,28.309 47.903 C 28.029 47.846,27.846 48.029,27.903 48.309 C 27.960 48.589,27.555 48.989,27.003 49.199 C 26.451 49.409,26.000 49.834,26.000 50.143 C 26.000 50.453,25.640 50.801,25.200 50.916 C 24.760 51.031,24.400 51.400,24.400 51.736 C 24.400 52.071,24.049 52.457,23.620 52.594 C 23.192 52.730,22.736 53.172,22.607 53.577 C 22.479 53.982,22.019 54.406,21.587 54.519 C 21.154 54.633,20.800 55.012,20.800 55.363 C 20.800 55.713,20.526 56.000,20.190 56.000 C 19.855 56.000,19.409 56.451,19.199 57.003 C 18.989 57.555,18.589 57.960,18.309 57.903 C 18.029 57.846,17.846 58.029,17.903 58.309 C 17.960 58.589,17.555 58.989,17.003 59.199 C 16.451 59.409,16.000 59.834,16.000 60.143 C 16.000 60.453,15.640 60.801,15.200 60.916 C 14.760 61.031,14.400 61.400,14.400 61.736 C 14.400 62.071,14.049 62.457,13.620 62.594 C 13.192 62.730,12.736 63.172,12.607 63.577 C 12.479 63.982,12.019 64.406,11.587 64.519 C 11.154 64.633,10.800 65.012,10.800 65.363 C 10.800 65.713,10.526 66.000,10.190 66.000 C 9.855 66.000,9.409 66.451,9.199 67.003 C 8.989 67.555,8.589 67.960,8.309 67.903 C 8.029 67.846,7.846 68.029,7.903 68.309 C 7.960 68.589,7.555 68.989,7.003 69.199 C 6.451 69.409,6.000 69.834,6.000 70.143 C 6.000 70.453,5.640 70.801,5.200 70.916 C 4.760 71.031,4.400 71.400,4.400 71.736 C 4.400 72.071,4.049 72.457,3.620 72.594 C 3.192 72.730,2.736 73.172,2.607 73.577 C 2.479 73.982,2.019 74.406,1.587 74.519 C 1.154 74.633,0.800 75.012,0.800 75.363 C 0.800 75.713,0.620 76.000,0.400 76.000 C 0.180 76.000,0.000 76.338,0.000 76.750 C 0.000 77.893,1.281 77.999,15.350 78.013 C 30.263 78.027,30.090 77.990,29.282 81.010 C 29.017 82.001,28.800 83.235,28.800 83.752 C 28.800 84.269,28.440 85.150,28.000 85.709 C 27.560 86.269,27.200 86.888,27.200 87.085 C 27.200 87.499,24.615 90.400,24.246 90.400 C 24.111 90.400,23.640 90.760,23.200 91.200 C 22.760 91.640,22.064 92.000,21.654 92.000 C 21.244 92.000,20.478 92.338,19.952 92.752 C 19.113 93.412,18.093 93.521,11.574 93.652 L 4.151 93.800 4.322 94.700 C 4.444 95.341,4.774 95.600,5.470 95.600 C 6.136 95.600,6.357 95.759,6.165 96.100 C 5.939 96.500,5.990 96.500,6.421 96.100 C 7.238 95.342,7.600 95.495,7.600 96.600 C 7.600 97.333,7.813 97.600,8.400 97.600 C 8.933 97.600,9.200 97.867,9.200 98.400 C 9.200 99.080,9.467 99.200,10.977 99.200 C 12.539 99.200,12.735 99.297,12.600 100.000 C 12.457 100.745,15.329 101.232,17.400 100.814 C 17.620 100.770,17.674 100.860,17.519 101.014 C 16.277 102.256,18.314 102.400,37.171 102.400 C 55.582 102.400,56.000 102.383,56.000 101.619 C 56.000 100.313,58.348 100.005,68.400 99.993 C 76.897 99.983,77.968 99.906,79.544 99.191 C 80.503 98.756,81.521 98.400,81.807 98.400 C 82.445 98.400,86.549 96.322,86.732 95.907 C 86.805 95.742,87.474 95.318,88.218 94.964 C 89.784 94.222,95.200 88.678,95.200 87.819 C 95.200 87.500,95.429 87.096,95.710 86.920 C 96.306 86.546,98.400 82.566,98.400 81.807 C 98.400 81.521,98.756 80.503,99.191 79.544 C 100.375 76.934,100.381 66.100,99.200 63.896 C 98.760 63.075,98.400 62.149,98.400 61.838 C 98.400 59.218,92.310 51.194,88.240 48.451 C 87.382 47.873,86.482 47.265,86.240 47.100 C 85.998 46.935,85.350 46.620,84.800 46.401 C 84.250 46.181,83.530 45.835,83.200 45.630 C 81.129 44.348,76.131 43.239,72.324 43.217 C 68.881 43.198,68.276 43.596,69.664 44.964 C 71.101 46.382,72.000 47.698,72.000 48.387 C 72.000 48.731,72.395 49.729,72.878 50.606 C 74.191 52.990,74.191 62.210,72.878 64.594 C 72.395 65.471,72.000 66.508,72.000 66.898 C 72.000 67.288,71.640 67.916,71.200 68.293 C 70.760 68.670,70.400 69.163,70.400 69.389 C 70.400 70.980,65.853 72.709,63.051 72.183 C 55.241 70.718,52.818 51.830,59.589 45.210 C 61.432 43.409,61.522 43.425,48.467 43.147 C 41.940 43.008,35.954 42.767,35.165 42.611 C 34.082 42.397,33.566 42.491,33.065 42.992 M172.989 314.400 C 172.989 329.250,173.039 335.325,173.100 327.900 C 173.161 320.475,173.161 308.325,173.100 300.900 C 173.039 293.475,172.989 299.550,172.989 314.400 " stroke="none" fill="#f4d4c4" fill-rule="evenodd"></path><path id="path3" d="M62.171 44.500 C 60.152 46.034,58.915 47.485,58.621 48.666 C 58.465 49.290,58.038 50.132,57.672 50.539 C 57.110 51.162,57.006 52.264,57.006 57.600 C 57.006 62.936,57.110 64.038,57.672 64.661 C 58.038 65.068,58.457 65.877,58.602 66.460 C 59.498 70.052,65.510 72.716,67.493 70.400 C 67.870 69.960,68.412 69.600,68.699 69.600 C 68.985 69.600,69.408 69.105,69.638 68.501 C 69.868 67.896,70.293 67.131,70.583 66.801 C 70.874 66.470,71.244 65.570,71.407 64.800 C 71.569 64.030,71.949 63.045,72.251 62.611 C 73.172 61.287,72.997 53.965,72.000 52.104 C 71.560 51.284,71.200 50.302,71.200 49.924 C 71.200 49.305,69.688 46.654,68.908 45.904 C 66.307 43.403,64.194 42.963,62.171 44.500 M-0.000 82.500 C -0.000 84.300,0.168 85.600,0.400 85.600 C 0.620 85.600,0.800 85.960,0.800 86.400 C 0.800 86.840,0.575 87.203,0.300 87.206 C -0.071 87.211,-0.079 87.289,0.267 87.510 C 0.525 87.673,0.795 88.435,0.867 89.203 C 0.954 90.113,1.207 90.600,1.595 90.600 C 1.922 90.600,2.255 90.960,2.336 91.400 C 2.661 93.174,5.422 94.459,6.200 93.200 C 6.343 92.968,8.538 92.800,11.425 92.800 C 15.639 92.800,16.632 92.677,17.896 92.000 C 18.716 91.560,19.722 91.200,20.131 91.200 C 21.548 91.200,25.331 87.812,26.232 85.737 C 26.533 85.042,26.962 84.412,27.185 84.337 C 27.713 84.158,28.132 80.743,27.703 80.115 C 27.457 79.756,23.843 79.601,13.686 79.515 L -0.000 79.400 -0.000 82.500 M285.956 280.100 C 285.486 280.995,285.488 280.996,286.342 280.238 C 287.295 279.391,287.382 279.200,286.814 279.200 C 286.602 279.200,286.216 279.605,285.956 280.100 M173.389 315.000 C 173.389 330.180,173.439 336.332,173.500 328.671 C 173.561 321.010,173.561 308.590,173.500 301.071 C 173.439 293.552,173.389 299.820,173.389 315.000 " stroke="none" fill="#383736" fill-rule="evenodd"></path><path id="path4" d="M41.400 20.272 C 41.400 29.001,41.463 35.815,41.541 35.413 C 41.642 34.887,41.767 34.823,41.991 35.185 C 42.210 35.540,42.380 35.557,42.574 35.243 C 42.724 34.999,42.651 34.800,42.410 34.800 C 42.102 34.800,41.986 30.377,42.015 19.709 C 42.037 11.409,41.908 4.569,41.728 4.509 C 41.548 4.449,41.400 11.542,41.400 20.272 M70.197 5.700 C 69.895 6.549,69.783 17.980,70.079 17.681 C 70.338 17.421,70.738 5.198,70.487 5.199 C 70.426 5.200,70.295 5.425,70.197 5.700 M70.242 19.442 C 70.511 20.925,70.896 21.310,70.708 19.908 C 70.629 19.315,70.445 18.711,70.299 18.566 C 70.154 18.421,70.128 18.815,70.242 19.442 M70.876 25.210 L 71.000 27.800 66.761 28.000 C 64.406 28.111,62.271 28.409,61.957 28.669 C 61.646 28.927,60.224 29.269,58.796 29.428 C 57.368 29.587,55.573 30.051,54.806 30.459 C 54.039 30.866,53.028 31.200,52.560 31.200 C 52.091 31.200,51.250 31.560,50.691 32.000 C 50.131 32.440,49.325 32.800,48.899 32.800 C 48.473 32.800,47.798 33.160,47.400 33.600 C 47.002 34.040,46.345 34.400,45.941 34.400 C 45.537 34.400,44.982 34.760,44.707 35.200 C 44.432 35.640,43.880 36.000,43.480 36.000 C 43.080 36.000,42.864 36.180,43.000 36.400 C 43.354 36.973,44.250 36.893,44.913 36.230 C 45.227 35.916,46.095 35.380,46.842 35.038 C 47.589 34.696,48.470 34.245,48.800 34.036 C 50.064 33.236,53.078 32.005,54.410 31.744 C 55.174 31.594,56.187 31.221,56.661 30.916 C 57.134 30.610,59.114 30.192,61.061 29.987 C 63.007 29.782,65.229 29.431,65.997 29.207 C 66.766 28.983,68.242 28.800,69.277 28.800 C 71.647 28.800,71.984 28.270,71.515 25.281 C 71.025 22.156,70.729 22.122,70.876 25.210 M60.839 44.900 C 56.958 48.947,56.611 49.989,56.611 57.600 C 56.611 67.045,59.264 71.600,64.763 71.600 L 67.359 71.600 69.276 69.558 C 70.418 68.342,71.386 66.847,71.670 65.858 C 71.933 64.946,72.385 63.845,72.674 63.411 C 73.408 62.310,73.408 52.890,72.674 51.789 C 72.385 51.355,71.930 50.244,71.664 49.320 C 69.989 43.507,64.373 41.214,60.839 44.900 M67.342 44.604 C 69.065 45.979,69.087 46.003,70.208 47.718 C 70.754 48.553,71.200 49.545,71.200 49.924 C 71.200 50.302,71.560 51.284,72.000 52.104 C 72.997 53.965,73.172 61.287,72.251 62.611 C 71.949 63.045,71.569 64.030,71.407 64.800 C 71.244 65.570,70.874 66.470,70.583 66.801 C 70.293 67.131,69.868 67.896,69.638 68.501 C 69.408 69.105,68.985 69.600,68.699 69.600 C 68.412 69.600,67.870 69.960,67.493 70.400 C 65.510 72.716,59.498 70.052,58.602 66.460 C 58.457 65.877,58.038 65.068,57.672 64.661 C 57.110 64.038,57.006 62.936,57.006 57.600 C 57.006 52.264,57.110 51.162,57.672 50.539 C 58.038 50.132,58.465 49.290,58.621 48.666 C 59.566 44.880,64.695 42.491,67.342 44.604 M0.000 78.357 C 0.000 79.554,0.533 79.600,14.406 79.600 C 27.285 79.600,27.551 79.616,27.805 80.417 C 28.129 81.436,27.656 84.400,27.170 84.400 C 26.972 84.400,26.557 84.985,26.247 85.700 C 25.333 87.808,21.561 91.200,20.131 91.200 C 19.722 91.200,18.716 91.560,17.896 92.000 C 16.635 92.676,15.639 92.800,11.481 92.800 C 8.775 92.800,6.389 92.963,6.180 93.161 C 5.971 93.360,5.440 93.623,5.000 93.747 C 4.560 93.870,4.740 93.863,5.400 93.732 C 6.060 93.600,9.228 93.381,12.441 93.246 C 15.770 93.106,18.522 92.807,18.841 92.552 C 19.148 92.306,20.033 91.901,20.807 91.652 C 22.504 91.106,26.242 87.927,26.633 86.697 C 26.787 86.212,27.257 85.349,27.678 84.780 C 28.274 83.974,28.417 83.215,28.322 81.372 L 28.200 79.000 14.919 78.800 C 5.053 78.651,1.510 78.471,1.139 78.100 C 0.426 77.386,0.000 77.482,0.000 78.357 M346.278 143.413 C 345.660 143.956,345.390 144.394,345.678 144.387 C 345.965 144.381,346.523 143.931,346.919 143.387 C 347.813 142.158,347.698 142.163,346.278 143.413 M331.075 158.300 C 331.534 159.589,332.003 159.897,333.907 160.163 C 334.948 160.308,336.149 160.690,336.576 161.013 C 337.004 161.336,337.724 161.602,338.176 161.604 C 338.629 161.606,339.900 162.050,341.000 162.591 C 342.100 163.132,343.242 163.581,343.537 163.587 C 343.832 163.594,344.531 163.960,345.091 164.400 C 345.650 164.840,346.422 165.200,346.805 165.200 C 347.188 165.200,347.735 165.480,348.019 165.823 C 348.304 166.166,349.091 166.705,349.768 167.022 C 350.446 167.339,351.462 167.914,352.026 168.299 C 352.590 168.685,353.591 169.360,354.250 169.800 C 357.374 171.887,366.407 180.460,369.421 184.200 C 371.156 186.353,371.533 186.881,374.069 190.700 C 375.298 192.550,375.966 193.200,376.641 193.200 C 377.959 193.200,378.214 192.469,377.002 192.165 C 376.436 192.023,375.704 191.387,375.376 190.753 C 375.048 190.119,374.604 189.600,374.390 189.600 C 374.175 189.600,374.000 189.400,374.000 189.156 C 374.000 188.476,371.567 184.873,370.947 184.635 C 370.646 184.520,370.398 184.194,370.396 183.913 C 370.394 183.631,369.676 182.770,368.800 182.000 C 367.924 181.230,367.206 180.387,367.204 180.127 C 367.202 179.867,366.840 179.540,366.400 179.400 C 365.960 179.260,365.600 178.871,365.600 178.536 C 365.600 178.200,365.240 177.831,364.800 177.716 C 364.360 177.601,364.000 177.258,364.000 176.953 C 364.000 176.649,363.834 176.400,363.632 176.400 C 363.429 176.400,362.453 175.590,361.463 174.600 C 360.473 173.610,359.573 172.800,359.463 172.800 C 359.353 172.800,358.478 172.014,357.517 171.054 C 356.557 170.094,355.373 169.182,354.886 169.027 C 354.399 168.873,354.000 168.578,354.000 168.373 C 354.000 168.168,353.756 168.000,353.458 168.000 C 353.161 168.000,352.431 167.550,351.838 167.000 C 351.244 166.450,350.448 166.000,350.068 166.000 C 349.689 166.000,349.070 165.640,348.693 165.200 C 348.316 164.760,347.674 164.400,347.266 164.400 C 346.858 164.400,346.198 164.040,345.800 163.600 C 345.402 163.160,344.592 162.800,344.000 162.800 C 343.408 162.800,342.598 162.440,342.200 162.000 C 341.762 161.516,340.968 161.200,340.192 161.200 C 339.486 161.200,338.479 160.867,337.954 160.461 C 337.429 160.054,336.110 159.603,335.023 159.458 C 333.902 159.308,332.678 158.849,332.197 158.397 C 331.150 157.414,330.746 157.379,331.075 158.300 M387.390 256.000 C 387.390 271.730,387.439 278.165,387.500 270.300 C 387.560 262.435,387.560 249.565,387.500 241.700 C 387.439 233.835,387.390 240.270,387.390 256.000 M301.932 265.609 C 300.685 266.921,299.456 268.626,299.201 269.397 C 298.946 270.169,298.572 270.800,298.369 270.800 C 298.166 270.800,298.000 271.160,298.000 271.600 C 298.000 272.040,298.191 272.400,298.424 272.400 C 298.657 272.400,298.762 272.262,298.657 272.093 C 298.194 271.344,304.138 264.000,305.208 264.000 C 305.681 264.000,341.037 299.398,341.332 300.168 C 341.466 300.515,341.761 300.800,341.987 300.800 C 342.214 300.800,342.421 301.205,342.446 301.700 C 342.485 302.455,342.524 302.479,342.686 301.847 C 343.055 300.409,341.700 298.913,323.905 281.106 C 303.709 260.897,305.326 262.038,301.932 265.609 M120.955 286.465 C 121.112 287.266,122.000 287.324,121.994 286.533 C 121.989 285.967,121.909 285.924,121.642 286.345 C 121.400 286.728,121.232 286.755,121.078 286.435 C 120.930 286.125,120.890 286.134,120.955 286.465 M172.589 314.600 C 172.589 329.560,172.639 335.622,172.700 328.071 C 172.761 320.520,172.761 308.280,172.700 300.871 C 172.639 293.462,172.589 299.640,172.589 314.600 M291.213 343.976 C 290.676 344.979,291.336 345.405,292.055 344.519 C 292.519 343.946,292.516 343.897,292.032 344.189 C 291.606 344.446,291.528 344.365,291.719 343.866 C 292.071 342.950,291.721 343.026,291.213 343.976 M163.600 352.721 C 163.600 352.970,163.105 353.443,162.500 353.771 C 161.895 354.099,161.605 354.375,161.856 354.384 C 162.553 354.408,164.240 352.909,163.900 352.568 C 163.735 352.402,163.600 352.471,163.600 352.721 M284.806 360.389 C 284.436 361.080,284.492 361.200,285.186 361.200 C 285.634 361.200,286.000 360.941,286.000 360.624 C 286.000 359.667,285.269 359.523,284.806 360.389 M316.800 363.533 C 316.800 363.790,316.530 364.000,316.200 364.000 C 315.870 364.000,315.600 364.180,315.600 364.400 C 315.600 364.620,315.758 364.800,315.951 364.800 C 316.472 364.800,317.355 363.621,317.057 363.324 C 316.916 363.182,316.800 363.277,316.800 363.533 M281.478 368.656 C 281.179 368.955,281.506 369.600,281.957 369.600 C 282.127 369.600,282.267 369.330,282.267 369.000 C 282.267 368.373,281.914 368.219,281.478 368.656 M278.267 376.667 C 277.781 377.153,277.990 377.600,278.700 377.594 C 279.248 377.589,279.281 377.513,278.855 377.242 C 278.394 376.951,278.394 376.863,278.855 376.680 C 279.155 376.561,279.205 376.449,278.967 376.432 C 278.728 376.414,278.413 376.520,278.267 376.667 M271.213 393.976 C 270.676 394.979,271.336 395.405,272.055 394.519 C 272.519 393.946,272.516 393.897,272.032 394.189 C 271.606 394.446,271.528 394.365,271.719 393.866 C 272.071 392.950,271.721 393.026,271.213 393.976 " stroke="none" fill="#8a6248" fill-rule="evenodd"></path></g></svg>